<svg width="32" height="32" viewBox="0 0 32 32" fill="none" xmlns="http://www.w3.org/2000/svg">
  <circle cx="16" cy="16" r="16" fill="#F8F9FA"/>
  <g clip-path="url(#clip0)">
    <path d="M16 32C24.8366 32 32 24.8366 32 16C32 7.16344 24.8366 0 16 0C7.16344 0 0 7.16344 0 16C0 24.8366 7.16344 32 16 32Z" fill="url(#paint0_linear)"/>
    <path d="M16 2C23.732 2 30 8.268 30 16C30 23.732 23.732 30 16 30C8.268 30 2 23.732 2 16C2 8.268 8.268 2 16 2Z" stroke="#00D4FF" stroke-width="1"/>
  </g>
  <defs>
    <linearGradient id="paint0_linear" x1="16" y1="0" x2="16" y2="32" gradientUnits="userSpaceOnUse">
      <stop offset="0.48" stop-color="#1E40AF"/>
      <stop offset="0.52" stop-color="#22C55E"/>
    </linearGradient>
    <clipPath id="clip0">
      <rect width="32" height="32" rx="16" fill="white"/>
    </clipPath>
  </defs>
</svg>